<svg xmlns="http://www.w3.org/2000/svg" width="79.762" height="20.544" viewBox="0 0 79.762 20.544">
  <g id="Group_40755" data-name="Group 40755" transform="translate(0 0)">
    <g id="Group_40754" data-name="Group 40754">
      <path id="Path_55745" data-name="Path 55745" d="M965.277,1061.295H944.266v3.607h15.868l-15.868,12.357v4.507h21.012v-3.607H949.411l15.866-12.326Z" transform="translate(-885.516 -1061.295)" fill="#009b3b"/>
      <g id="Group_40751" data-name="Group 40751" transform="translate(29.164 0)">
        <g id="Group_40750" data-name="Group 40750">
          <path id="Path_55746" data-name="Path 55746" d="M840.473,1075.75a13.687,13.687,0,0,1-.223,2.628,3.787,3.787,0,0,1-.916,1.879,4.278,4.278,0,0,1-1.994,1.129,12.718,12.718,0,0,1-3.457.38H822.117V1061.3h11.534a13.71,13.71,0,0,1,2.441.205,4.97,4.97,0,0,1,1.964.78,3.89,3.89,0,0,1,1.309,1.6,6.375,6.375,0,0,1,.477,2.669,9.3,9.3,0,0,1-.308,2.474,3.863,3.863,0,0,1-1.186,1.9,3.227,3.227,0,0,1,1.594,1.643A7.747,7.747,0,0,1,840.473,1075.75Zm-3.6-8.582a2.667,2.667,0,0,0-.555-1.745,2.079,2.079,0,0,0-1.709-.678h-9.532v4.825h9.748a1.805,1.805,0,0,0,1.532-.677A2.767,2.767,0,0,0,836.87,1067.167Zm.539,8.665a7.276,7.276,0,0,0-.1-1.314,1.772,1.772,0,0,0-.377-.852,1.58,1.58,0,0,0-.786-.462,5,5,0,0,0-1.324-.144l-9.748-.041v5.3H834.1a11.161,11.161,0,0,0,1.571-.093,2.288,2.288,0,0,0,1.016-.369,1.535,1.535,0,0,0,.554-.76A3.886,3.886,0,0,0,837.408,1075.832Z" transform="translate(-822.117 -1061.295)" fill="#009b3b"/>
        </g>
      </g>
      <path id="Path_55747" data-name="Path 55747" d="M913.954,1082.63h-4.679v-20.195h1.046a3.633,3.633,0,0,1,3.633,3.633Z" transform="translate(-859 -1062.159)" fill="#009b3b"/>
      <g id="Group_40753" data-name="Group 40753" transform="translate(0 0)">
        <rect id="Rectangle_6856" data-name="Rectangle 6856" width="4.692" height="20.544" fill="#58585a"/>
        <g id="Group_40752" data-name="Group 40752" transform="translate(7.469)">
          <path id="Path_55748" data-name="Path 55748" d="M746.554,1101.695l-10.972-14.2-.217.281h0l-2.817,3.644,6.5,8.405a3.8,3.8,0,0,0,3.31,1.867h4.2Z" transform="translate(-732.548 -1081.151)" fill="#58585a"/>
          <path id="Path_55749" data-name="Path 55749" d="M745.073,1067.642l3.033,3.925,7.938-10.272h-4.2a3.8,3.8,0,0,0-3.31,1.867l-3.463,4.48Z" transform="translate(-742.039 -1061.295)" fill="#009b3b"/>
        </g>
      </g>
    </g>
  </g>
</svg>
